<svg xmlns="http://www.w3.org/2000/svg" width="107.455" height="59.704" viewBox="0 0 107.455 59.704">
  <g id="Group_138889" data-name="Group 138889" transform="translate(-244.477 -52.202)">
    <g id="Group_138778" data-name="Group 138778" transform="translate(274.506 52.201)">
      <path id="Path_2" data-name="Path 2" d="M316.071,54.829l-1.641,2.106a14.8,14.8,0,0,0-11.5-1.771c-6.41,2.167-10.292,6.4-11.2,13.056a17.742,17.742,0,0,0,1.9,9.053l-1.853,1.894a16.633,16.633,0,0,1-2.444-13.222C292.255,54.385,305.718,48.408,316.071,54.829Z" transform="translate(-288.924 -52.201)" fill="#008bd0" fill-rule="evenodd"/>
      <path id="Path_3" data-name="Path 3" d="M303.118,95.935c6.854,3.629,13.365,2.507,19.118-3.072v3.325c-6.849,5.344-13.787,5.661-20.8,1.684C301.434,97.872,303.075,95.935,303.118,95.935Z" transform="translate(-292.982 -65.391)" fill="#008bd0" fill-rule="evenodd"/>
      <path id="Path_4" data-name="Path 4" d="M295.574,83.363l1.684,1.9,16.928-16.716,16.508,16.716,1.937-1.853L315.7,66.813l4.758-4.716,22.993,23.2,1.853-1.938L320.458,58.645S295.532,83.363,295.574,83.363Z" transform="translate(-291.081 -54.292)" fill="#1b1918" fill-rule="evenodd"/>
    </g>
    <path id="Path_5" data-name="Path 5" d="M286.21,115.084a3.035,3.035,0,1,1,6.065,0,3.043,3.043,0,1,1-6.065,0Zm-1.723,0a4.756,4.756,0,1,0,9.511,0,4.756,4.756,0,0,0-9.511,0Zm-6.17-.219v-2.877h1.269c1.309,0,1.687.544,1.687,1.425a1.335,1.335,0,0,1-1.452,1.452Zm-1.671,4.885h1.671v-3.434h1.607l1.829,3.434h1.866l-1.892-3.434a2.255,2.255,0,0,0-.311-.454v-.026a2.648,2.648,0,0,0,1.555-2.515,2.6,2.6,0,0,0-1.5-2.513,4.284,4.284,0,0,0-1.856-.259h-2.966Zm-7.453,0h5.716v-1.438h-4.046v-2.475h3.1V114.4h-3.1v-2.409H274.7V110.55h-5.508Zm-6.648-1.438v-2.657h1.786a1.329,1.329,0,1,1,0,2.657Zm0-4v-2.32h1.594a1.062,1.062,0,0,1,1.167,1.14,1.1,1.1,0,0,1-1.143,1.18Zm-1.674,5.441H264.2c1.7,0,3.175-.828,3.175-2.668a2.148,2.148,0,0,0-1.488-2.164v-.026A2.183,2.183,0,0,0,267,112.92c0-1.515-1.18-2.37-2.84-2.37h-3.291Zm-6.986,0h5.651v-1.438h-3.977V110.55h-1.674Zm-5.275-7.606s.2.905.364,1.426l.815,2.462h-2.41l.815-2.462c.182-.52.391-1.426.391-1.426Zm2.372,7.606h1.724l-3.241-9.2h-1.749l-3.238,9.2H246.2l.779-2.359H250.2Z" transform="translate(0 -18.877)" fill="#1b1918" fill-rule="evenodd"/>
    <path id="Path_6" data-name="Path 6" d="M373.94,112.219s.2.905.364,1.426l.815,2.462H372.71l.815-2.462c.182-.52.391-1.426.391-1.426Zm2.373,7.606h1.723l-3.238-9.2h-1.749l-3.241,9.2h1.724l.778-2.359h3.225Zm-17.018,0h1.674l.388-5.144c.04-.609.013-1.438.013-1.438h.027s.284.905.5,1.438l1.478,3.563h1.465l1.491-3.563c.219-.533.491-1.428.491-1.428h.026s-.026.818.013,1.428l.388,5.144h1.66l-.739-9.2h-1.79l-1.8,4.547c-.208.547-.454,1.349-.454,1.349H364.1s-.258-.8-.467-1.349l-1.8-4.547h-1.79Zm-6.571-4.885v-2.877h1.269c1.309,0,1.686.544,1.686,1.425a1.335,1.335,0,0,1-1.452,1.452Zm-1.671,4.885h1.671v-3.434h1.607l1.829,3.434h1.865l-1.892-3.434a2.275,2.275,0,0,0-.311-.454v-.026a2.648,2.648,0,0,0,1.554-2.515,2.6,2.6,0,0,0-1.5-2.513,4.283,4.283,0,0,0-1.855-.259h-2.967Zm-5.276-7.606s.2.905.362,1.426l.818,2.462h-2.412l.818-2.462c.182-.52.388-1.426.388-1.426Zm2.373,7.606h1.724l-3.241-9.2h-1.75l-3.241,9.2h1.726l.776-2.359h3.228Zm-15.243,0h1.673v-3.861h4.212v3.861h1.67v-9.2h-1.67v3.9h-4.212v-3.9h-1.673Zm-6.284-4.626v-3.136h1.594a1.424,1.424,0,0,1,1.515,1.555,1.447,1.447,0,0,1-1.541,1.581Zm-1.674,4.626h1.674V116.65H328.5a2.852,2.852,0,0,0,2.93-3.032,2.82,2.82,0,0,0-2.93-2.993h-3.552Z" transform="translate(-26.103 -18.951)" fill="#008bd0" fill-rule="evenodd"/>
    <path id="Path_7" data-name="Path 7" d="M325.361,132.956a.177.177,0,0,1,.1.159.609.609,0,0,1-.032.161c0,.032-.011.1-.011.116,0,.129.032.224.14.267a.3.3,0,0,0,.222.129.492.492,0,0,0,.291-.129c.19,0,.341-.225.467-.362.288-.118.5-.49.842-.694,0,.245.14.821.554.821.032,0,.119-.032.161-.032.021,0,.053.011.063.011.182,0,.341-.191.47-.235.032-.053.18-.148.193-.211,0-.031-.034-.066-.034-.1a1.056,1.056,0,0,0,.034-.127c0-.129-.013-.255-.045-.255-.084.074-.084.126-.211.171a.417.417,0,0,1-.224.1c-.15,0-.277-.161-.277-.382a1.352,1.352,0,0,1,.053-.256c-.053-.108-.032-.386-.193-.386-.021,0-.063.011-.084.011H327.8a1.185,1.185,0,0,0-.6.438,1.268,1.268,0,0,0-.459.415c-.127.055-.32.277-.47.277,0-.064.066-.148.1-.211a4.6,4.6,0,0,1,.446-.522.937.937,0,0,0,.309-.332c.13-.032.224-.19.375-.33a2.983,2.983,0,0,0,.361-.383.619.619,0,0,0,.372-.406.326.326,0,0,0-.288-.18,1.749,1.749,0,0,0-.786.425,7.619,7.619,0,0,1-.673.544,1.941,1.941,0,0,0-.554.564c-.288.267-.48.354-.512.491Zm-4.861.821c.066,0,.193-.277.343-.353.19-.32.67-.713.8-.905.277-.235.449-.351.533-.351a.086.086,0,0,1,.077.1,2.1,2.1,0,0,1-.077.407c-.126.575-.287.884-.287,1.076.031.084.1.159.171.159a.471.471,0,0,0,.278-.127c.126-.129.607-.7.736-.821.191-.129.288-.287.436-.343.32,0,.512.522.768.651a.87.87,0,0,0,.372.127c.288,0,.512-.277.631-.414,0-.13-.021-.214-.021-.309,0-.055.021-.151.021-.224-.119,0-.277.3-.449.3a.241.241,0,0,1-.161-.1c-.137-.2-.148-.234-.243-.385a.53.53,0,0,0-.47-.47.686.686,0,0,0-.288.087,3.25,3.25,0,0,0-.757.67A5.208,5.208,0,0,1,323,132c.024-.278.087-.523.087-.649,0-.235-.119-.351-.246-.351a1.029,1.029,0,0,0-.638.446c-.385.32-.343.417-.726.684-.084.074-.151.126-.182.126-.01,0-.032-.031-.032-.053,0-.105.13-.438.151-.659v-.076c0-.159-.087-.309-.224-.309a.609.609,0,0,0-.309.119,2.334,2.334,0,0,0-.5.488,7.113,7.113,0,0,0-.726.789c0,.151.021.277.021.491.224-.031.533-.694.736-.694h.053c.01,0,.032.066.032.1,0,.256-.341,1.045-.341,1.2,0,.1.119.161.214.161A.443.443,0,0,0,320.5,133.777Zm-3.817-.042a.8.8,0,0,0,.267.084.763.763,0,0,0,.3-.074,3.7,3.7,0,0,0,.947-.982l.032-.021c.1,0,.064.649.618.649l.032-.021c.332,0,.438-.159.695-.288.095-.011.126-.193.126-.34a.909.909,0,0,0-.042-.3c-.1.042-.309.287-.467.287-.1,0-.2-.118-.234-.438v-.158c0-.161-.032-.418-.3-.418-.288.032-.449.48-.7.768-.095.161-.351.393-.438.533-.1.032-.222.159-.264.159l-.024-.011a.8.8,0,0,1-.074-.341,3.129,3.129,0,0,1,.14-.831c0-.18.222-.618.222-.843a.226.226,0,0,0-.032-.126.246.246,0,0,0-.105-.032.855.855,0,0,0-.372.18,5.976,5.976,0,0,1-1.034,1.3c-.1.063-.13.266-.13.4a.447.447,0,0,0,.032.2c.055,0,.172-.127.235-.193a1.905,1.905,0,0,0,.224-.211.115.115,0,0,0,.032-.01C316.493,132.669,316.343,133.514,316.683,133.735Zm-2.185-3.177c-.158.161-.351.533-.541.659a.211.211,0,0,1-.013-.042c0-.224.364-.853.364-1.035a.457.457,0,0,0,.214-.351c.253-.256.723-1.1.863-1.1.022,0,.053.021.053.032v.053a3.124,3.124,0,0,1-.418.95c-.095.159-.245.512-.33.512v-.011A.681.681,0,0,1,314.5,130.558Zm-.074,2.333c.14,0,.224.256.33.343a.734.734,0,0,0,.428.137.83.83,0,0,0,.351-.1c.193-.193.256-.129.385-.256a.412.412,0,0,0,.064-.256c0-.063.021-.15.021-.193,0-.064-.021-.116-.053-.116a.3.3,0,0,0-.129.1,1.1,1.1,0,0,1-.32.119.447.447,0,0,1-.287-.161c-.159-.277-.148-.747-.32-.789-.151.011-.428.074-.5.224-.064.064-.116.351-.214.48-.074.116-.137.256-.222.4-.151.256-.322.5-.375.5v-.021a.19.19,0,0,1-.042-.129c0-.253.137-.832.161-1.022.1-.1.66-.81.786-.94.235-.234.533-.789.7-.99a7.941,7.941,0,0,0,.544-1.161.706.706,0,0,0,.172-.438,1.622,1.622,0,0,0,.095-.417.247.247,0,0,0-.266-.277h-.011a.12.12,0,0,0-.116-.063c-.224,0-.715.47-.992.821a4.542,4.542,0,0,0-.48.652,4.926,4.926,0,0,0-.425.821,5.8,5.8,0,0,0-.512,1.172c-.129.512,0,.19-.193.958a1.2,1.2,0,0,1-.214.245c0,.13-.01.449-.01.533.064,0,.129-.116.129-.116h.022c0,.032-.022.159-.022.309,0,.288.053.7.256.789a.424.424,0,0,0,.116.011c.074,0,.172-.032.235-.032a3.969,3.969,0,0,0,.554-.641h-.021C314.052,133.3,314.371,132.956,314.425,132.891Zm-7.567,2.465a6.227,6.227,0,0,1-.491.438,1.321,1.321,0,0,1-.459.158h-.053a.2.2,0,0,1-.172-.19.241.241,0,0,1,.066-.151c0-.14.222-.361.554-.8.158-.031.341-.417.467-.417a.777.777,0,0,1,.214.544A.7.7,0,0,1,306.858,135.356Zm.639.13c0-.193.182-.354.182-.639v-.15a2.305,2.305,0,0,0-.309-.8l-.024-.029c0-.084.235-.245.428-.382a4.1,4.1,0,0,0,.67-.533c0-.077-.011-.191-.011-.256,0-.148-.021-.277-.042-.277-.074.034-.137.182-.32.287a9.812,9.812,0,0,0-.99.745,1.806,1.806,0,0,1-.385-.689c0-.066-.032-.15-.032-.193a1.626,1.626,0,0,1,.105-.47,1.721,1.721,0,0,0,.576-.478,3.413,3.413,0,0,0,.726-.692c.193-.118.182-.182.193-.382a.28.28,0,0,0-.256-.309.864.864,0,0,0-.417.19c-.105.024-.341.191-.341.246-.193.126-.852.691-.884.884a1.834,1.834,0,0,1-.361.446c-.13.193-.555.449-.631.565a1.962,1.962,0,0,0,.032.274c0,.064-.021.141-.021.172v.032c.172-.095.364-.277.533-.351l-.011.045c0,.786.554,1.063.554,1.317a6.324,6.324,0,0,0-.9.937,1.969,1.969,0,0,0-.3.926c0,.161.053.309.159.341.055.127.245.137.5.19a1.919,1.919,0,0,0,.726-.256A1.988,1.988,0,0,0,307.5,135.485Zm-5.062-1.528a9.84,9.84,0,0,0,.8-.916c.32-.234.5-.459.607-.459.053,0,.127.055.191.182.182.127.332.5.459.639a.384.384,0,0,0,.224.087c.288,0,.576-.354.758-.534a2.009,2.009,0,0,1-.055-.48c-.074,0-.211.266-.351.266-.032,0-.064-.032-.1-.042-.118-.087-.193-.375-.287-.544-.1-.193-.151-.3-.193-.375a.949.949,0,0,0-.3-.053.886.886,0,0,0-.288.064,10.16,10.16,0,0,0-.852.821c-.13.129-.2.3-.235.3v-.024a.154.154,0,0,1-.021-.043,5.145,5.145,0,0,1,.245-.778,1.688,1.688,0,0,0,.137-.565.81.81,0,0,0-.032-.222c-.064-.172-.169-.224-.266-.224a1.361,1.361,0,0,0-.415.148c-.087.108-.533.575-.6.641-.13.19-.343.4-.407.533a.221.221,0,0,0-.1.19,1.284,1.284,0,0,0,.032.161c0,.064-.032.1-.032.159,0,.034-.021.1-.021.119s.021.063.032.063.084-.063.137-.147a4.163,4.163,0,0,0,.459-.512.289.289,0,0,1,.182-.087.076.076,0,0,1,.074.087.619.619,0,0,1-.043.19c-.053.277-.182.512-.182.631l.021.031c-.032.169-.148.32-.148.48a.69.69,0,0,1,.021.1c0,.032-.021.084-.021.116s.021.1.032.1a.69.69,0,0,0,.19.032C302.232,134.086,302.4,134.054,302.434,133.957Zm-3.647-.884c.076,0,.108-.126.235-.182.108-.127.319-.372.427-.372a.21.21,0,0,1,.064.021c.148.14.064.256.224.375a.838.838,0,0,0,.491.586c.042,0,.095.032.137.032a1.419,1.419,0,0,0,.905-.544c0-.256.01-.256.01-.533a.723.723,0,0,0-.3.277c-.1.011-.235.116-.33.116s-.2-.116-.288-.4c-.032-.214-.032-.438-.1-.715a.518.518,0,0,0-.449-.235h-.053a1.018,1.018,0,0,0-.172.193,1.358,1.358,0,0,0-.4.47,1.771,1.771,0,0,0-.386.361c0,.129-.032.309-.032.428C298.776,132.988,298.787,133.041,298.787,133.073ZM299.8,130.2v.01c0,.084.172.116.277.116a.687.687,0,0,0,.1-.021c.055-.074.438-.161.5-.544a1.828,1.828,0,0,0,.129-.533.19.19,0,0,0-.129-.105h-.053c-.161,0-.449.137-.449.256a.751.751,0,0,0-.446.607A.447.447,0,0,0,299.8,130.2Zm-3.879,2.782c0,.01-.021.063-.021.074v.021a1.025,1.025,0,0,0,.287-.341,1.967,1.967,0,0,0,.351-.406c.245-.288.406-.425.522-.425a.2.2,0,0,1,.161.126.905.905,0,0,1,.074.333,5.513,5.513,0,0,1-.172.947,1.18,1.18,0,0,0-.158.449c0,.137.074.232.266.232h.084c.161,0,.48-.277.639-.309a5.947,5.947,0,0,1,.673-.5l-.011-.011c0-.064.158-.211.158-.253a.585.585,0,0,0-.053-.245V132.6a.088.088,0,0,0-.042-.084.077.077,0,0,0-.064.064,3.066,3.066,0,0,1-.736.586.589.589,0,0,1-.105.034c-.011,0-.032-.034-.032-.055a6.92,6.92,0,0,0,.264-.926V132.1a1.35,1.35,0,0,0-.3-.757c-.126-.13-.2-.32-.509-.351h-.076a.843.843,0,0,0-.457.277.184.184,0,0,0-.14.159c0,.042.043.129.043.193-.127.064-.159.224-.224.288a6.27,6.27,0,0,1-.468.659v.108A2.135,2.135,0,0,0,295.921,132.978Zm-3.048.757a.54.54,0,0,0,.565.01,3.671,3.671,0,0,0,.947-.982l.032-.021c.1,0,.066.649.62.649l.032-.021c.33,0,.436-.159.692-.288.1-.011.129-.193.129-.34a.883.883,0,0,0-.043-.3c-.1.042-.311.287-.47.287-.095,0-.2-.118-.235-.438v-.158c0-.161-.031-.418-.3-.418-.288.032-.449.48-.7.768-.1.161-.351.393-.435.533-.1.032-.224.159-.267.159l-.021-.011a.8.8,0,0,1-.074-.341,3.244,3.244,0,0,1,.138-.831c0-.18.224-.618.224-.843a.226.226,0,0,0-.032-.126.263.263,0,0,0-.108-.032.855.855,0,0,0-.372.18,5.914,5.914,0,0,1-1.034,1.3c-.1.063-.127.266-.127.4a.447.447,0,0,0,.032.2c.053,0,.169-.127.235-.193a2.444,2.444,0,0,0,.224-.211.109.109,0,0,0,.031-.01C292.68,132.669,292.532,133.514,292.873,133.735Zm-2.494-.151c0,.032-.022.1-.022.127,0,.161.084.277.148.277.119.045.151.108.256.161.13,0,.449-.32.726-.6.127-.053.224-.214.383-.351.129-.119.288-.214.288-.322v-.032c0-.053-.011-.105-.011-.137,0-.064.011-.161.011-.234,0-.022-.032-.032-.043-.032-.053,0-.126.126-.32.234a2.111,2.111,0,0,1-.618.488l-.01.011c-.022,0-.055-.074-.055-.159a6.939,6.939,0,0,1,.129-.821,5.578,5.578,0,0,1,.158-.694c.087-.19.235-.765.278-.884.066-.063.374-.031.374-.158a3.063,3.063,0,0,1,.032-.522c0-.119-.151-.055-.151-.151l.022-.053a1.333,1.333,0,0,0,.129-.459.242.242,0,0,0-.256-.256c-.361.108-.341.81-.681.81-.034,0-.066-.031-.1-.031a.935.935,0,0,1-.137.031c-.13,0-.332-.031-.459-.031-.064,0-.126.021-.161.021a1.787,1.787,0,0,0-.33-.021.389.389,0,0,0-.214.031.614.614,0,0,0-.105.4c0,.064.01.138.01.169.022.087.193.13.341.151.011,0,.043-.021.066-.021.064,0,.2.032.33.032h.33c.105,0,.224.021.224.053v.032a6.085,6.085,0,0,1-.6.95,4.255,4.255,0,0,1-.789.958c0,.053-.021.151-.021.193a3.362,3.362,0,0,0,.031.361,8.544,8.544,0,0,0,1.035-1.1s.032.021.032.032v.032a3.338,3.338,0,0,0-.182.886A1.687,1.687,0,0,0,290.379,133.585Zm-3.679-.607c0,.01-.021.063-.021.074v.021a.985.985,0,0,0,.288-.341,1.912,1.912,0,0,0,.353-.406c.243-.288.4-.425.52-.425a.2.2,0,0,1,.161.126.893.893,0,0,1,.074.333,5.787,5.787,0,0,1-.169.947,1.171,1.171,0,0,0-.161.449c0,.137.074.232.267.232h.084c.161,0,.48-.277.641-.309a6.4,6.4,0,0,1,.67-.5l-.01-.011c0-.064.161-.211.161-.253a.585.585,0,0,0-.053-.245V132.6a.087.087,0,0,0-.045-.084.076.076,0,0,0-.063.064,2.977,2.977,0,0,1-.736.586.578.578,0,0,1-.106.034c-.01,0-.031-.034-.031-.055a6.879,6.879,0,0,0,.266-.926V132.1a1.375,1.375,0,0,0-.3-.757c-.13-.13-.2-.32-.512-.351h-.074a.836.836,0,0,0-.459.277.183.183,0,0,0-.137.159c0,.042.042.129.042.193-.129.064-.161.224-.224.288a6.013,6.013,0,0,1-.47.659v.108A2.167,2.167,0,0,0,286.7,132.978Zm-3.048.757a.792.792,0,0,0,.266.084.752.752,0,0,0,.3-.074,3.676,3.676,0,0,0,.95-.982l.032-.021c.095,0,.063.649.618.649l.032-.021c.33,0,.438-.159.694-.288.1-.011.127-.193.127-.34a.883.883,0,0,0-.043-.3c-.1.042-.309.287-.47.287-.1,0-.2-.118-.232-.438v-.158c0-.161-.034-.418-.3-.418-.288.032-.447.48-.7.768-.1.161-.351.393-.438.533-.095.032-.224.159-.266.159l-.022-.011a.8.8,0,0,1-.074-.341,3.245,3.245,0,0,1,.137-.831c0-.18.224-.618.224-.843a.22.22,0,0,0-.032-.126.243.243,0,0,0-.105-.032.863.863,0,0,0-.375.18,5.962,5.962,0,0,1-1.032,1.3c-.1.063-.129.266-.129.4a.463.463,0,0,0,.031.2c.053,0,.172-.127.235-.193a2.074,2.074,0,0,0,.224-.211.108.108,0,0,0,.032-.01C283.461,132.669,283.311,133.514,283.652,133.735Zm-3.761.222a9.428,9.428,0,0,0,.8-.916c.322-.234.5-.459.609-.459.053,0,.127.055.191.182.182.127.332.5.459.639a.384.384,0,0,0,.224.087c.288,0,.576-.354.757-.534a1.91,1.91,0,0,1-.055-.48c-.074,0-.211.266-.351.266-.032,0-.063-.032-.1-.042-.119-.087-.193-.375-.288-.544-.1-.193-.15-.3-.193-.375a.948.948,0,0,0-.3-.053.882.882,0,0,0-.288.064,10.275,10.275,0,0,0-.853.821c-.129.129-.2.3-.234.3v-.024a.153.153,0,0,1-.022-.043,5.154,5.154,0,0,1,.246-.778,1.687,1.687,0,0,0,.137-.565.809.809,0,0,0-.032-.222c-.063-.172-.169-.224-.267-.224a1.363,1.363,0,0,0-.414.148c-.087.108-.533.575-.6.641-.126.19-.34.4-.4.533a.221.221,0,0,0-.1.19,1.283,1.283,0,0,0,.032.161c0,.064-.032.1-.032.159,0,.034-.021.1-.021.119s.021.063.032.063.084-.063.137-.147a4.224,4.224,0,0,0,.459-.512.287.287,0,0,1,.182-.087c.032,0,.074.021.074.087a.613.613,0,0,1-.042.19c-.055.277-.182.512-.182.631l.022.031c-.032.169-.148.32-.148.48a.69.69,0,0,1,.021.1c0,.032-.021.084-.021.116s.021.1.032.1a.69.69,0,0,0,.19.032C279.687,134.086,279.856,134.054,279.891,133.957Zm-2.507-.169a.959.959,0,0,0,.386-.14c.116,0,.361-.256.361-.32v-.021a.434.434,0,0,0-.47-.361.244.244,0,0,0-.095-.032c-.127,0-.245.222-.288.222a.6.6,0,0,0-.224.354C277.054,133.616,277.225,133.712,277.384,133.788Zm-1.982,0a.957.957,0,0,0,.385-.14c.116,0,.361-.256.361-.32v-.021a.435.435,0,0,0-.47-.361.246.246,0,0,0-.1-.032c-.129,0-.245.222-.288.222a.585.585,0,0,0-.224.354C275.072,133.616,275.243,133.712,275.4,133.788Zm-1.982,0a.934.934,0,0,0,.383-.14c.118,0,.364-.256.364-.32v-.021a.436.436,0,0,0-.47-.361.248.248,0,0,0-.095-.032c-.13,0-.246.222-.288.222a.582.582,0,0,0-.224.354C273.09,133.616,273.259,133.712,273.42,133.788Z" transform="translate(-9.281 -24.545)" fill="#1b1918" fill-rule="evenodd"/>
    <path id="Path_8" data-name="Path 8" d="M366.754,133.412c.011-.158.288-.256.438-.372.011,0,.032.032.032.084,0,.13-.095.438-.095.6,0,.011.01.034.01.045a3.723,3.723,0,0,0-.353.842,2.938,2.938,0,0,0-.638.713,2.232,2.232,0,0,0-.47.631c-.095,0-.126.253-.256.288-.053.137-.287.34-.287.52,0,.014.01.066.01.076a.254.254,0,0,0,.214.084A.981.981,0,0,0,366,136.6c.066-.064.1-.193.193-.246s.151-.224.277-.309c.064-.129.3-.449.361-.575.087-.1.119-.214.311-.47.351-.726,1.14-1.076,1.523-1.522v-.045c0-.074-.032-.179-.032-.3a.93.93,0,0,0,.022-.105.129.129,0,0,0-.053-.022c-.129,0-.417.393-.511.4-.138.119-.256.309-.309.309,0,0-.032-.021-.032-.032,0-.18.372-.947.4-1.2a2.03,2.03,0,0,0,.151-.533c0-.053-.021-.116-.053-.127a1.083,1.083,0,0,0-.172-.024,1.138,1.138,0,0,0-.182.034c-.179.084-.319.341-.414.351-.182.084-.319.393-.575.586a1.265,1.265,0,0,0-.309.3,2.459,2.459,0,0,0-.407.309c-.011,0-.064.021-.074.021-.032,0-.064-.021-.064-.084l.011-.053c.053-.288.255-.736.287-1.013v-.042a.233.233,0,0,0-.234-.224h-.064c-.2.032-.407.361-.652.6-.126.172-.533.449-.6.576,0,.066.032.161.032.224a.573.573,0,0,1-.042.224.1.1,0,0,0,.01.053c.119-.064.438-.4.5-.4.084,0,.022.372.084.446,0,.066-.031.182-.031.245a.219.219,0,0,0,.108.193,1.441,1.441,0,0,0,.211.043.743.743,0,0,0,.576-.383C366.466,133.765,366.627,133.53,366.754,133.412Zm-3.634.726c0,.032-.021.1-.021.127,0,.161.084.277.148.277.118.045.15.108.255.161.13,0,.449-.32.726-.6.126-.053.224-.214.382-.351.129-.119.288-.214.288-.322V133.4c0-.053-.011-.105-.011-.137,0-.064.011-.161.011-.234,0-.022-.032-.032-.043-.032-.053,0-.126.126-.319.234a2.093,2.093,0,0,1-.617.488l-.011.011c-.021,0-.053-.074-.053-.159a6.894,6.894,0,0,1,.126-.821,5.473,5.473,0,0,1,.161-.694c.084-.19.234-.765.277-.884.064-.063.372-.031.372-.158a3.128,3.128,0,0,1,.031-.522c0-.119-.147-.055-.147-.151l.021-.053a1.4,1.4,0,0,0,.126-.459.24.24,0,0,0-.255-.256c-.362.108-.341.81-.681.81-.032,0-.064-.031-.1-.031a.9.9,0,0,1-.137.031c-.129,0-.33-.031-.459-.031-.063,0-.126.021-.158.021a1.832,1.832,0,0,0-.332-.021c-.1,0-.18,0-.211.031a.6.6,0,0,0-.108.4c0,.064.011.138.011.169.021.087.193.13.343.151.01,0,.042-.021.063-.021.064,0,.2.032.33.032h.33c.108,0,.224.021.224.053v.032a5.847,5.847,0,0,1-.6.95,4.167,4.167,0,0,1-.789.958c0,.053-.021.151-.021.193a3.29,3.29,0,0,0,.032.361,8.38,8.38,0,0,0,1.034-1.1s.032.021.032.032v.032a3.449,3.449,0,0,0-.182.886A1.687,1.687,0,0,0,363.12,134.137Zm-3.367-.512c.074,0,.105-.126.234-.182.106-.127.32-.372.425-.372a.217.217,0,0,1,.064.021c.151.14.066.256.224.375a.845.845,0,0,0,.491.586c.042,0,.095.032.137.032a1.422,1.422,0,0,0,.907-.544c0-.256.011-.256.011-.533a.7.7,0,0,0-.3.277c-.1.011-.235.116-.333.116s-.2-.116-.287-.4c-.032-.214-.032-.438-.1-.715a.516.516,0,0,0-.449-.235h-.053a.9.9,0,0,0-.169.193,1.341,1.341,0,0,0-.407.47,1.744,1.744,0,0,0-.382.361c0,.129-.032.309-.032.428C359.742,133.541,359.752,133.593,359.752,133.625Zm1.011-2.876v.01c0,.084.172.116.277.116a.625.625,0,0,0,.1-.021c.053-.074.436-.161.5-.544a1.881,1.881,0,0,0,.126-.533.186.186,0,0,0-.126-.105h-.055c-.159,0-.447.137-.447.256a.75.75,0,0,0-.449.607A.442.442,0,0,0,360.763,130.749Zm-4.027,3.761a9.728,9.728,0,0,0,.8-.916c.32-.234.5-.459.607-.459.053,0,.126.055.193.182.18.127.33.5.457.639a.382.382,0,0,0,.224.087c.288,0,.575-.354.757-.534a2.022,2.022,0,0,1-.053-.48c-.076,0-.214.266-.354.266-.032,0-.063-.032-.095-.042-.116-.087-.193-.375-.288-.544-.1-.193-.151-.3-.193-.375a.938.938,0,0,0-.3-.053.879.879,0,0,0-.287.064,10.164,10.164,0,0,0-.853.821c-.13.129-.2.3-.235.3v-.024a.154.154,0,0,1-.021-.043,5.145,5.145,0,0,1,.245-.778,1.672,1.672,0,0,0,.137-.565.808.808,0,0,0-.031-.222c-.064-.172-.169-.224-.267-.224a1.35,1.35,0,0,0-.414.148c-.087.108-.533.575-.6.641-.13.19-.343.4-.407.533a.22.22,0,0,0-.095.19,1.284,1.284,0,0,0,.032.161c0,.064-.032.1-.032.159,0,.034-.022.1-.022.119s.022.063.032.063.084-.063.137-.147a4.112,4.112,0,0,0,.459-.512.289.289,0,0,1,.182-.087c.032,0,.074.021.074.087a.633.633,0,0,1-.042.19c-.053.277-.182.512-.182.631l.021.031c-.032.169-.147.32-.147.48a.688.688,0,0,1,.021.1c0,.032-.021.084-.021.116s.021.1.031.1a.694.694,0,0,0,.193.032C356.532,134.638,356.7,134.607,356.736,134.509Z" transform="translate(-36.061 -25.098)" fill="#1b1918" fill-rule="evenodd"/>
  </g>
</svg>
